# xmcd
#
# Track frame offsets:
#	150
#	17446
#	36203
#	57703
#	74403
#	94540
#	113930
#	131972
#	147572
#	163940
#	184126
#	211208
#	234280
#	253057
#	272627
#	293143
#	315493
#	336236
#
# Disc length: 4778 seconds
#
# Revision: 1
# Processed by: cddbd v1.5PL3 Copyright (c) Steve Scherf et al.
# Submitted via: audiograbber 1.82.01
#
DISCID=1712a812
DTITLE=Alanis Morissette - The Best Of
DYEAR=1900
DGENRE=Pop
TTITLE0=Ironic
TTITLE1=You oughta know
TTITLE2=All I really want
TTITLE3=Hand in my Pocket
TTITLE4=Head over feet
TTITLE5=That I would be good
TTITLE6=You learn
TTITLE7=21 Thing I want in a Lover
TTITLE8=Narcissus
TTITLE9=Hand clean
TTITLE10=Flinch
TTITLE11=So unsexy
TTITLE12=Precous Illusion
TTITLE13=That particular Time
TTITLE14=A Man
TTITLE15=You are me nothing in return
TTITLE16=Surrendering
TTITLE17=Utopia
EXTD=
EXTT0=
EXTT1=
EXTT2=
EXTT3=
EXTT4=
EXTT5=
EXTT6=
EXTT7=
EXTT8=
EXTT9=
EXTT10=
EXTT11=
EXTT12=
EXTT13=
EXTT14=
EXTT15=
EXTT16=
EXTT17=
PLAYORDER=
